<?xml version="1.0" encoding="UTF-8" standalone="no"?>
<!DOCTYPE svg PUBLIC "-//W3C//DTD SVG 1.1//EN"
 "http://www.w3.org/Graphics/SVG/1.1/DTD/svg11.dtd">
<!-- Generated by graphviz version 2.38.0 (20140413.2041)
 -->
<!-- Title: controllers_diagram Pages: 1 -->
<svg width="407pt" height="505pt"
 viewBox="0.00 0.00 406.81 505.00" xmlns="http://www.w3.org/2000/svg" xmlns:xlink="http://www.w3.org/1999/xlink">
<g id="graph0" class="graph" transform="scale(1 1) rotate(0) translate(93.8208 306.5)">
<title>controllers_diagram</title>
<polygon fill="white" stroke="none" points="-93.8208,198.5 -93.8208,-306.5 312.986,-306.5 312.986,198.5 -93.8208,198.5"/>
<!-- _diagram_info -->
<g id="node1" class="node"><title>_diagram_info</title>
<text text-anchor="start" x="83.3123" y="15.9" font-family="Times,serif" font-size="13.00">Controllers diagram</text>
<text text-anchor="start" x="83.3123" y="28.9" font-family="Times,serif" font-size="13.00">Date: Jul 15 2015 &#45; 13:02</text>
<text text-anchor="start" x="83.3123" y="41.9" font-family="Times,serif" font-size="13.00">Migration version: 20150703232816</text>
<text text-anchor="start" x="83.3123" y="54.9" font-family="Times,serif" font-size="13.00">Generated by RailRoady 1.3.0</text>
<text text-anchor="start" x="83.3123" y="67.9" font-family="Times,serif" font-size="13.00">http://railroady.prestonlee.com</text>
</g>
<!-- ApplicationController -->
<g id="node2" class="node"><title>ApplicationController</title>
<path fill="none" stroke="black" d="M-77.8208,-121C-77.8208,-121 37.8208,-121 37.8208,-121 43.8208,-121 49.8208,-127 49.8208,-133 49.8208,-133 49.8208,-201 49.8208,-201 49.8208,-207 43.8208,-213 37.8208,-213 37.8208,-213 -77.8208,-213 -77.8208,-213 -83.8208,-213 -89.8208,-207 -89.8208,-201 -89.8208,-201 -89.8208,-133 -89.8208,-133 -89.8208,-127 -83.8208,-121 -77.8208,-121"/>
<text text-anchor="middle" x="-20" y="-197.8" font-family="Times,serif" font-size="14.00">ApplicationController</text>
<polyline fill="none" stroke="black" points="-89.8208,-191 49.8208,-191 "/>
<polyline fill="none" stroke="black" points="-89.8208,-167 49.8208,-167 "/>
<polyline fill="none" stroke="black" points="-89.8208,-143 49.8208,-143 "/>
<text text-anchor="start" x="-81.8208" y="-127.8" font-family="Times,serif" font-size="14.00">_layout</text>
</g>
<!-- CommentsController -->
<g id="node3" class="node"><title>CommentsController</title>
<path fill="none" stroke="black" d="M86.8931,-31C86.8931,-31 197.107,-31 197.107,-31 203.107,-31 209.107,-37 209.107,-43 209.107,-43 209.107,-151 209.107,-151 209.107,-157 203.107,-163 197.107,-163 197.107,-163 86.8931,-163 86.8931,-163 80.8931,-163 74.8931,-157 74.8931,-151 74.8931,-151 74.8931,-43 74.8931,-43 74.8931,-37 80.8931,-31 86.8931,-31"/>
<text text-anchor="middle" x="142" y="-147.8" font-family="Times,serif" font-size="14.00">CommentsController</text>
<polyline fill="none" stroke="black" points="74.8931,-141 209.107,-141 "/>
<text text-anchor="start" x="82.8931" y="-125.8" font-family="Times,serif" font-size="14.00">create</text>
<text text-anchor="start" x="82.8931" y="-111.8" font-family="Times,serif" font-size="14.00">destroy</text>
<text text-anchor="start" x="82.8931" y="-97.8" font-family="Times,serif" font-size="14.00">index</text>
<polyline fill="none" stroke="black" points="74.8931,-91 209.107,-91 "/>
<polyline fill="none" stroke="black" points="74.8931,-67 209.107,-67 "/>
<text text-anchor="start" x="82.8931" y="-51.8" font-family="Times,serif" font-size="14.00">_layout</text>
<text text-anchor="start" x="82.8931" y="-37.8" font-family="Times,serif" font-size="14.00">comment_params</text>
</g>
<!-- ImagesController -->
<g id="node4" class="node"><title>ImagesController</title>
<path fill="none" stroke="black" d="M207.014,-196C207.014,-196 296.986,-196 296.986,-196 302.986,-196 308.986,-202 308.986,-208 308.986,-208 308.986,-290 308.986,-290 308.986,-296 302.986,-302 296.986,-302 296.986,-302 207.014,-302 207.014,-302 201.014,-302 195.014,-296 195.014,-290 195.014,-290 195.014,-208 195.014,-208 195.014,-202 201.014,-196 207.014,-196"/>
<text text-anchor="middle" x="252" y="-286.8" font-family="Times,serif" font-size="14.00">ImagesController</text>
<polyline fill="none" stroke="black" points="195.014,-280 308.986,-280 "/>
<polyline fill="none" stroke="black" points="195.014,-256 308.986,-256 "/>
<polyline fill="none" stroke="black" points="195.014,-232 308.986,-232 "/>
<text text-anchor="start" x="203.014" y="-216.8" font-family="Times,serif" font-size="14.00">_layout</text>
<text text-anchor="start" x="203.014" y="-202.8" font-family="Times,serif" font-size="14.00">image_params</text>
</g>
<!-- PostsController -->
<g id="node5" class="node"><title>PostsController</title>
<path fill="none" stroke="black" d="M-47.5586,104C-47.5586,104 31.5586,104 31.5586,104 37.5586,104 43.5586,98 43.5586,92 43.5586,92 43.5586,-72 43.5586,-72 43.5586,-78 37.5586,-84 31.5586,-84 31.5586,-84 -47.5586,-84 -47.5586,-84 -53.5586,-84 -59.5586,-78 -59.5586,-72 -59.5586,-72 -59.5586,92 -59.5586,92 -59.5586,98 -53.5586,104 -47.5586,104"/>
<text text-anchor="middle" x="-8" y="-68.8" font-family="Times,serif" font-size="14.00">PostsController</text>
<polyline fill="none" stroke="black" points="-59.5586,-62 43.5586,-62 "/>
<text text-anchor="start" x="-51.5586" y="-46.8" font-family="Times,serif" font-size="14.00">create</text>
<text text-anchor="start" x="-51.5586" y="-32.8" font-family="Times,serif" font-size="14.00">destroy</text>
<text text-anchor="start" x="-51.5586" y="-18.8" font-family="Times,serif" font-size="14.00">edit</text>
<text text-anchor="start" x="-51.5586" y="-4.8" font-family="Times,serif" font-size="14.00">index</text>
<text text-anchor="start" x="-51.5586" y="9.2" font-family="Times,serif" font-size="14.00">new</text>
<text text-anchor="start" x="-51.5586" y="23.2" font-family="Times,serif" font-size="14.00">show</text>
<text text-anchor="start" x="-51.5586" y="37.2" font-family="Times,serif" font-size="14.00">update</text>
<polyline fill="none" stroke="black" points="-59.5586,44 43.5586,44 "/>
<polyline fill="none" stroke="black" points="-59.5586,68 43.5586,68 "/>
<text text-anchor="start" x="-51.5586" y="83.2" font-family="Times,serif" font-size="14.00">_layout</text>
<text text-anchor="start" x="-51.5586" y="97.2" font-family="Times,serif" font-size="14.00">post_params</text>
</g>
<!-- WelcomeController -->
<g id="node6" class="node"><title>WelcomeController</title>
<path fill="none" stroke="black" d="M86.9673,194C86.9673,194 189.033,194 189.033,194 195.033,194 201.033,188 201.033,182 201.033,182 201.033,116 201.033,116 201.033,110 195.033,104 189.033,104 189.033,104 86.9673,104 86.9673,104 80.9673,104 74.9673,110 74.9673,116 74.9673,116 74.9673,182 74.9673,182 74.9673,188 80.9673,194 86.9673,194"/>
<text text-anchor="middle" x="138" y="119.2" font-family="Times,serif" font-size="14.00">WelcomeController</text>
<polyline fill="none" stroke="black" points="74.9673,126 201.033,126 "/>
<text text-anchor="start" x="82.9673" y="141.2" font-family="Times,serif" font-size="14.00">index</text>
<polyline fill="none" stroke="black" points="74.9673,148 201.033,148 "/>
<polyline fill="none" stroke="black" points="74.9673,172 201.033,172 "/>
<text text-anchor="start" x="82.9673" y="187.2" font-family="Times,serif" font-size="14.00">_layout</text>
</g>
</g>
</svg>
