<?xml version="1.0" encoding="UTF-8" standalone="no"?>
<!DOCTYPE svg PUBLIC "-//W3C//DTD SVG 1.1//EN"
 "http://www.w3.org/Graphics/SVG/1.1/DTD/svg11.dtd">
<!-- Generated by graphviz version 2.38.0 (20140413.2041)
 -->
<!-- Title: models_diagram Pages: 1 -->
<svg width="340pt" height="153pt"
 viewBox="0.00 0.00 339.89 153.00" xmlns="http://www.w3.org/2000/svg" xmlns:xlink="http://www.w3.org/1999/xlink">
<g id="graph0" class="graph" transform="scale(1 1) rotate(0) translate(4 149)">
<title>models_diagram</title>
<polygon fill="white" stroke="none" points="-4,4 -4,-149 335.89,-149 335.89,4 -4,4"/>
<!-- _diagram_info -->
<g id="node1" class="node"><title>_diagram_info</title>
<text text-anchor="start" x="8" y="-130.6" font-family="Times,serif" font-size="13.00">Models diagram</text>
<text text-anchor="start" x="8" y="-117.6" font-family="Times,serif" font-size="13.00">Date: Jul 15 2015 &#45; 13:02</text>
<text text-anchor="start" x="8" y="-104.6" font-family="Times,serif" font-size="13.00">Migration version: 20150703232816</text>
<text text-anchor="start" x="8" y="-91.6" font-family="Times,serif" font-size="13.00">Generated by RailRoady 1.3.0</text>
<text text-anchor="start" x="8" y="-78.6" font-family="Times,serif" font-size="13.00">http://railroady.prestonlee.com</text>
</g>
<!-- Comment -->
<g id="node2" class="node"><title>Comment</title>
<ellipse fill="none" stroke="black" cx="204.688" cy="-18" rx="44.9768" ry="18"/>
<text text-anchor="middle" x="204.688" y="-13.8" font-family="Times,serif" font-size="14.00">Comment</text>
</g>
<!-- Image -->
<g id="node3" class="node"><title>Image</title>
<ellipse fill="none" stroke="black" cx="299.688" cy="-18" rx="32.4063" ry="18"/>
<text text-anchor="middle" x="299.688" y="-13.8" font-family="Times,serif" font-size="14.00">Image</text>
</g>
<!-- Post -->
<g id="node4" class="node"><title>Post</title>
<ellipse fill="none" stroke="black" cx="252.688" cy="-108.5" rx="27" ry="18"/>
<text text-anchor="middle" x="252.688" y="-104.3" font-family="Times,serif" font-size="14.00">Post</text>
</g>
<!-- Post&#45;&gt;Comment -->
<g id="edge1" class="edge"><title>Post&#45;&gt;Comment</title>
<path fill="none" stroke="#1078cd" d="M240.04,-84.1813C233.458,-72.0457 225.396,-57.181 218.634,-44.713"/>
<ellipse fill="none" stroke="#1078cd" cx="241.977" cy="-87.7516" rx="4.00002" ry="4.00002"/>
<polygon fill="#1078cd" stroke="#1078cd" points="218.53,-44.521 217.718,-33.5852 216.146,-40.1259 213.762,-35.7307 213.762,-35.7307 213.762,-35.7307 216.146,-40.1259 209.806,-37.8761 218.53,-44.521 218.53,-44.521"/>
</g>
<!-- Post&#45;&gt;Image -->
<g id="edge2" class="edge"><title>Post&#45;&gt;Image</title>
<path fill="none" stroke="#05ef4b" d="M265.097,-84.134C271.586,-71.9145 279.54,-56.9379 286.184,-44.4281"/>
<ellipse fill="none" stroke="#05ef4b" cx="263.184" cy="-87.735" rx="4.00002" ry="4.00002"/>
<polygon fill="#05ef4b" stroke="#05ef4b" points="286.272,-44.2609 294.937,-37.5397 288.618,-39.845 290.963,-35.4291 290.963,-35.4291 290.963,-35.4291 288.618,-39.845 286.988,-33.3184 286.272,-44.2609 286.272,-44.2609"/>
</g>
</g>
</svg>
