<?xml version="1.0" encoding="UTF-8" standalone="no"?>
<!DOCTYPE svg PUBLIC "-//W3C//DTD SVG 1.1//EN"
 "http://www.w3.org/Graphics/SVG/1.1/DTD/svg11.dtd">
<!-- Generated by graphviz version 2.38.0 (20140413.2041)
 -->
<!-- Title: models_diagram Pages: 1 -->
<svg width="441pt" height="302pt"
 viewBox="0.00 0.00 441.19 302.00" xmlns="http://www.w3.org/2000/svg" xmlns:xlink="http://www.w3.org/1999/xlink">
<g id="graph0" class="graph" transform="scale(1 1) rotate(0) translate(4 298)">
<title>models_diagram</title>
<polygon fill="white" stroke="none" points="-4,4 -4,-298 437.193,-298 437.193,4 -4,4"/>
<!-- _diagram_info -->
<g id="node1" class="node"><title>_diagram_info</title>
<text text-anchor="start" x="8" y="-244.6" font-family="Times,serif" font-size="13.00">Models diagram</text>
<text text-anchor="start" x="8" y="-231.6" font-family="Times,serif" font-size="13.00">Date: Jul 15 2015 &#45; 13:02</text>
<text text-anchor="start" x="8" y="-218.6" font-family="Times,serif" font-size="13.00">Migration version: 20150703232816</text>
<text text-anchor="start" x="8" y="-205.6" font-family="Times,serif" font-size="13.00">Generated by RailRoady 1.3.0</text>
<text text-anchor="start" x="8" y="-192.6" font-family="Times,serif" font-size="13.00">http://railroady.prestonlee.com</text>
</g>
<!-- Comment -->
<g id="node2" class="node"><title>Comment</title>
<path fill="none" stroke="black" d="M161.182,-0.5C161.182,-0.5 270.193,-0.5 270.193,-0.5 276.193,-0.5 282.193,-6.5 282.193,-12.5 282.193,-12.5 282.193,-102.5 282.193,-102.5 282.193,-108.5 276.193,-114.5 270.193,-114.5 270.193,-114.5 161.182,-114.5 161.182,-114.5 155.182,-114.5 149.182,-108.5 149.182,-102.5 149.182,-102.5 149.182,-12.5 149.182,-12.5 149.182,-6.5 155.182,-0.5 161.182,-0.5"/>
<text text-anchor="middle" x="215.688" y="-99.3" font-family="Times,serif" font-size="14.00">Comment</text>
<polyline fill="none" stroke="black" points="149.182,-92.5 282.193,-92.5 "/>
<text text-anchor="start" x="157.182" y="-77.3" font-family="Times,serif" font-size="14.00">id :integer</text>
<text text-anchor="start" x="157.182" y="-63.3" font-family="Times,serif" font-size="14.00">user :string</text>
<text text-anchor="start" x="157.182" y="-49.3" font-family="Times,serif" font-size="14.00">text :text</text>
<text text-anchor="start" x="157.182" y="-35.3" font-family="Times,serif" font-size="14.00">post_id :integer</text>
<text text-anchor="start" x="157.182" y="-21.3" font-family="Times,serif" font-size="14.00">created_at :datetime</text>
<text text-anchor="start" x="157.182" y="-7.3" font-family="Times,serif" font-size="14.00">updated_at :datetime</text>
</g>
<!-- Image -->
<g id="node3" class="node"><title>Image</title>
<path fill="none" stroke="black" d="M312.182,-0.5C312.182,-0.5 421.193,-0.5 421.193,-0.5 427.193,-0.5 433.193,-6.5 433.193,-12.5 433.193,-12.5 433.193,-102.5 433.193,-102.5 433.193,-108.5 427.193,-114.5 421.193,-114.5 421.193,-114.5 312.182,-114.5 312.182,-114.5 306.182,-114.5 300.182,-108.5 300.182,-102.5 300.182,-102.5 300.182,-12.5 300.182,-12.5 300.182,-6.5 306.182,-0.5 312.182,-0.5"/>
<text text-anchor="middle" x="366.688" y="-99.3" font-family="Times,serif" font-size="14.00">Image</text>
<polyline fill="none" stroke="black" points="300.182,-92.5 433.193,-92.5 "/>
<text text-anchor="start" x="308.182" y="-77.3" font-family="Times,serif" font-size="14.00">id :integer</text>
<text text-anchor="start" x="308.182" y="-63.3" font-family="Times,serif" font-size="14.00">name :string</text>
<text text-anchor="start" x="308.182" y="-49.3" font-family="Times,serif" font-size="14.00">filename :string</text>
<text text-anchor="start" x="308.182" y="-35.3" font-family="Times,serif" font-size="14.00">post_id :integer</text>
<text text-anchor="start" x="308.182" y="-21.3" font-family="Times,serif" font-size="14.00">created_at :datetime</text>
<text text-anchor="start" x="308.182" y="-7.3" font-family="Times,serif" font-size="14.00">updated_at :datetime</text>
</g>
<!-- Post -->
<g id="node4" class="node"><title>Post</title>
<path fill="none" stroke="black" d="M237.182,-151.5C237.182,-151.5 346.193,-151.5 346.193,-151.5 352.193,-151.5 358.193,-157.5 358.193,-163.5 358.193,-163.5 358.193,-281.5 358.193,-281.5 358.193,-287.5 352.193,-293.5 346.193,-293.5 346.193,-293.5 237.182,-293.5 237.182,-293.5 231.182,-293.5 225.182,-287.5 225.182,-281.5 225.182,-281.5 225.182,-163.5 225.182,-163.5 225.182,-157.5 231.182,-151.5 237.182,-151.5"/>
<text text-anchor="middle" x="291.688" y="-278.3" font-family="Times,serif" font-size="14.00">Post</text>
<polyline fill="none" stroke="black" points="225.182,-271.5 358.193,-271.5 "/>
<text text-anchor="start" x="233.182" y="-256.3" font-family="Times,serif" font-size="14.00">id :integer</text>
<text text-anchor="start" x="233.182" y="-242.3" font-family="Times,serif" font-size="14.00">index :string</text>
<text text-anchor="start" x="233.182" y="-228.3" font-family="Times,serif" font-size="14.00">title :string</text>
<text text-anchor="start" x="233.182" y="-214.3" font-family="Times,serif" font-size="14.00">text :text</text>
<text text-anchor="start" x="233.182" y="-200.3" font-family="Times,serif" font-size="14.00">author :string</text>
<text text-anchor="start" x="233.182" y="-186.3" font-family="Times,serif" font-size="14.00">created_at :datetime</text>
<text text-anchor="start" x="233.182" y="-172.3" font-family="Times,serif" font-size="14.00">updated_at :datetime</text>
<text text-anchor="start" x="233.182" y="-158.3" font-family="Times,serif" font-size="14.00">introduction :text</text>
</g>
<!-- Post&#45;&gt;Comment -->
<g id="edge1" class="edge"><title>Post&#45;&gt;Comment</title>
<path fill="none" stroke="#4f9f1e" d="M255.519,-143.927C252.436,-137.316 249.337,-130.67 246.304,-124.164"/>
<ellipse fill="none" stroke="#4f9f1e" cx="257.325" cy="-147.802" rx="4.00002" ry="4.00002"/>
<polygon fill="#4f9f1e" stroke="#4f9f1e" points="246.142,-123.816 245.994,-112.851 244.029,-119.284 241.916,-114.752 241.916,-114.752 241.916,-114.752 244.029,-119.284 237.837,-116.654 246.142,-123.816 246.142,-123.816"/>
</g>
<!-- Post&#45;&gt;Image -->
<g id="edge2" class="edge"><title>Post&#45;&gt;Image</title>
<path fill="none" stroke="#c30fa3" d="M327.381,-143.927C330.423,-137.316 333.481,-130.67 336.474,-124.164"/>
<ellipse fill="none" stroke="#c30fa3" cx="325.602" cy="-147.794" rx="4.00002" ry="4.00002"/>
<polygon fill="#c30fa3" stroke="#c30fa3" points="336.625,-123.837 344.893,-116.633 338.715,-119.294 340.805,-114.752 340.805,-114.752 340.805,-114.752 338.715,-119.294 336.717,-112.871 336.625,-123.837 336.625,-123.837"/>
</g>
</g>
</svg>
